<?xml version="1.0" encoding="iso-8859-1"?>
<!-- Generator: Adobe Illustrator 19.0.0, SVG Export Plug-In . SVG Version: 6.00 Build 0)  -->
<svg version="1.1" id="Layer_1" xmlns="http://www.w3.org/2000/svg" xmlns:xlink="http://www.w3.org/1999/xlink" x="0px" y="0px"
	 viewBox="0 0 512.001 512.001" style="enable-background:new 0 0 512.001 512.001;" xml:space="preserve">
<path style="fill:#CAD1D8;" d="M24,16h464c13.254,0,24,10.745,24,24v432c0,13.254-10.745,24-24,24H24C10.745,496,0,485.255,0,472V40
	C0,26.745,10.745,16,24,16z"/>
<path style="fill:#ABE1FA;" d="M24,80h464c4.418,0,8,3.582,8,8v384c0,4.418-3.582,8-8,8H24c-4.418,0-8-3.582-8-8V88
	C16,83.582,19.582,80,24,80z"/>
<circle style="fill:#FDBA4D;" cx="103.998" cy="192" r="32"/>
<path style="fill:#FFFFFF;" d="M496,440L350.16,294.16c-7.801-7.82-20.464-7.837-28.284-0.036c-0.012,0.012-0.024,0.024-0.036,0.036
	L136.001,480h351.12c4.905,0,8.88-3.976,8.88-8.88l0,0L496,440L496,440z"/>
<path style="fill:#E2E5E7;" d="M416,380L416,380c-5.513,5.527-5.513,14.473,0,20l11.68,11.68C445.812,429.792,456,454.37,456,480
	h31.12c4.905,0,8.88-3.976,8.88-8.88l0,0V440l-60-60C430.473,374.487,421.527,374.487,416,380z"/>
<path style="fill:#FFFFFF;" d="M24.88,480H276L151.04,337.2c-7.281-8.306-19.916-9.138-28.223-1.857
	c-0.659,0.577-1.279,1.198-1.856,1.857L16,440v31.12C16,476.024,19.976,480,24.88,480L24.88,480z"/>
<path style="fill:#E2E5E7;" d="M260.16,416c-12.049-13.622-31.769-17.401-48-9.2l64,73.04h40L260.16,416z"/>
<g>
	<path style="fill:#FFFFFF;" d="M332,176c-7.755-0.007-14.809,4.488-18.08,11.52c-6.893-5.53-16.962-4.424-22.492,2.468
		c-5.53,6.893-4.424,16.962,2.468,22.492c2.865,2.298,6.432,3.54,10.104,3.52h28c11.046,0,20-8.954,20-20S343.046,176,332,176z"/>
	<path style="fill:#FFFFFF;" d="M412,160c-7.755-0.007-14.809,4.488-18.08,11.52c-6.893-5.53-16.962-4.424-22.492,2.468
		c-5.53,6.893-4.424,16.962,2.468,22.492c2.865,2.298,6.432,3.54,10.104,3.52h28c11.046,0,20-8.954,20-20S423.046,160,412,160z"/>
</g>
<path style="fill:#3CB54A;" d="M200.001,336h112c13.254,0,24,10.745,24,24l0,0c0,13.254-10.745,24-24,24h-112
	c-13.254,0-24.001-10.745-24.001-24l0,0C176,346.745,186.745,336,200.001,336z"/>
<g>
	<circle style="fill:#0E9347;" cx="256" cy="359.998" r="7.998"/>
	<circle style="fill:#0E9347;" cx="288" cy="359.998" r="7.998"/>
	<circle style="fill:#0E9347;" cx="224" cy="359.998" r="7.998"/>
</g>
<g>
	<circle style="fill:#9BA7AF;" cx="24.002" cy="47.995" r="7.998"/>
	<circle style="fill:#9BA7AF;" cx="56.002" cy="47.995" r="7.998"/>
	<circle style="fill:#9BA7AF;" cx="88.002" cy="47.995" r="7.998"/>
</g>
<g>
	<path style="fill:#595A66;" d="M104,112L104,112c0,4.418-3.582,8-8,8H56c-4.418,0-8-3.582-8-8l0,0c0-4.418,3.582-8.001,8-8.001h40
		C100.418,104,104,107.582,104,112z"/>
	<path style="fill:#595A66;" d="M464,112L464,112c0,4.418-3.582,8-8,8h-32c-4.418,0-8-3.582-8-8l0,0c0-4.418,3.582-8.001,8-8.001h32
		C460.418,104,464,107.582,464,112z"/>
	<path style="fill:#595A66;" d="M400,112L400,112c0,4.418-3.582,8-8,8h-32c-4.418,0-8-3.582-8-8l0,0c0-4.418,3.582-8.001,8-8.001h32
		C396.418,104,400,107.582,400,112z"/>
	<path style="fill:#595A66;" d="M336,112L336,112c0,4.418-3.582,8-8,8h-32c-4.418,0-8-3.582-8-8l0,0c0-4.418,3.582-8.001,8-8.001h32
		C332.418,104,336,107.582,336,112z"/>
</g>
<path style="fill:#E2E5E7;" d="M120,40h368c4.418,0,8,3.582,8,8l0,0c0,4.418-3.582,8-8,8H120c-4.418,0-8-3.582-8-8l0,0
	C112,43.582,115.582,40,120,40z"/>
<g>
	<path style="fill:#595A66;" d="M152.001,248.001h208c4.418,0,8,3.582,8,8.001l0,0c0,4.418-3.582,8-8,8h-208
		c-4.418,0-8.001-3.582-8.001-8l0,0C144,251.582,147.582,248.001,152.001,248.001z"/>
	<path style="fill:#595A66;" d="M192,280h128c4.418,0,8,3.582,8,8l0,0c0,4.418-3.582,8-8,8H192c-4.418,0-8.001-3.582-8.001-8l0,0
		C184.001,283.582,187.582,280,192,280z"/>
</g>
<g>
</g>
<g>
</g>
<g>
</g>
<g>
</g>
<g>
</g>
<g>
</g>
<g>
</g>
<g>
</g>
<g>
</g>
<g>
</g>
<g>
</g>
<g>
</g>
<g>
</g>
<g>
</g>
<g>
</g>
</svg>
