<?xml version="1.0" encoding="iso-8859-1"?>
<!-- Generator: Adobe Illustrator 19.0.0, SVG Export Plug-In . SVG Version: 6.00 Build 0)  -->
<svg version="1.1" id="Layer_1" xmlns="http://www.w3.org/2000/svg" xmlns:xlink="http://www.w3.org/1999/xlink" x="0px" y="0px"
	 viewBox="0 0 512.001 512.001" style="enable-background:new 0 0 512.001 512.001;" xml:space="preserve">
<path style="fill:#FEDA44;" d="M86.467,63.552C53.224,81.893,32.56,122.372,32.56,180.302c0,113.697,79.561,251.501,177.707,307.794
	c48.915,28.056,93.209,30.565,125.342,11.953c-0.104,0.06-0.203,0.125-0.306,0.184l91.466-52.463
	c32.523-18.655,52.67-58.861,52.67-116.075c0-113.697-79.561-251.501-177.707-307.794C252.976-4.064,208.805-6.651,176.697,11.765
	L85.23,64.228C85.638,63.994,86.056,63.779,86.467,63.552z"/>
<path style="fill:#EEBF00;" d="M85.23,64.228l91.466-52.463c32.108-18.416,76.279-15.829,125.037,12.137
	C399.879,80.197,479.44,217.999,479.44,331.697c0,57.214-20.147,97.421-52.67,116.075l-91.466,52.463
	c32.524-18.654,52.671-58.86,52.671-116.074c0-113.697-79.561-251.501-177.707-307.794C161.511,48.399,117.339,45.812,85.23,64.228z
	"/>
<path style="fill:#FEDA44;" d="M32.56,180.303c0-113.697,79.561-160.231,177.707-103.937
	c98.146,56.293,177.708,194.097,177.708,307.794s-79.561,160.231-177.707,103.937S32.56,294,32.56,180.303z"/>
<path style="fill:#EEBF00;" d="M320.467,217.664c31.024,53.733,46.869,111.52,44.619,162.713
	c-1.959,44.578-18.129,78.857-44.365,94.049c-26.361,15.264-62.714,12.395-102.364-8.082
	c-45.272-23.38-87.282-65.836-118.29-119.545C69.045,293.065,53.199,235.28,55.449,184.086c1.959-44.578,18.13-78.857,44.366-94.048
	c26.361-15.264,62.714-12.395,102.363,8.081C247.449,121.5,289.458,163.954,320.467,217.664z M104.735,344.104
	c30.5,52.827,71.73,94.539,116.096,117.452c37.96,19.603,72.475,22.518,97.19,8.206c24.612-14.252,39.804-46.917,41.682-89.621
	c2.205-50.181-13.386-106.926-43.903-159.782c-30.5-52.827-71.73-94.538-116.096-117.452c-37.959-19.602-72.474-22.516-97.189-8.205
	c-24.612,14.251-39.804,46.916-41.682,89.621C58.628,234.504,74.219,291.249,104.735,344.104z"/>
<g>
	<path style="fill:#FECE00;" d="M335.809,63.049L255.75,109.27c1.817,1.598,3.621,3.224,5.414,4.873L352.4,61.468
		c-1.795-1.647-3.601-3.274-5.419-4.87L335.809,63.049"/>
	<path style="fill:#FECE00;" d="M417.791,140.437c-1.241-1.953-2.5-3.892-3.771-5.822l-91.3,52.712
		c1.27,1.932,2.528,3.87,3.768,5.824L417.791,140.437z"/>
	<path style="fill:#FECE00;" d="M250.95,3.319c-3.522-0.806-7-1.471-10.425-1.98l-90.983,52.528
		c3.408,0.519,6.869,1.201,10.37,2.013L250.95,3.319z"/>
	<path style="fill:#FECE00;" d="M210.957,76.771c2.274,1.315,4.537,2.679,6.791,4.079l91.177-52.641
		c-2.256-1.398-4.52-2.763-6.798-4.075L210.957,76.771z"/>
	<path style="fill:#FECE00;" d="M292.243,146.563c1.514,1.783,3.014,3.583,4.503,5.4l91.275-52.697
		c-1.49-1.815-2.991-3.616-4.507-5.397L292.243,146.563z"/>
	<path style="fill:#FECE00;" d="M368.029,277.891c0.791,2.218,1.568,4.438,2.317,6.661l91.367-52.75
		c-0.75-2.222-1.527-4.442-2.321-6.659L368.029,277.891z"/>
	<path style="fill:#FECE00;" d="M347.977,231.106c1.039,2.07,2.058,4.148,3.063,6.231l91.336-52.733
		c-1.006-2.083-2.025-4.16-3.066-6.229L347.977,231.106z"/>
	<path style="fill:#FECE00;" d="M464.884,405.054c1.605-3.374,3.083-6.898,4.438-10.562l-91.629,52.902
		c-1.375,3.681-2.879,7.216-4.508,10.602L464.884,405.054z"/>
	<path style="fill:#FECE00;" d="M382.098,328.13c0.484,2.405,0.947,4.808,1.374,7.206l91.412-52.777
		c-0.429-2.397-0.897-4.797-1.384-7.2L382.098,328.13z"/>
	<path style="fill:#FECE00;" d="M387.859,391.163l91.478-52.815c0.062-2.193,0.104-4.404,0.104-6.651
		c0-0.465-0.012-0.934-0.015-1.399l-91.462,52.806c0.002,0.351,0.011,0.705,0.011,1.056
		C387.975,386.527,387.928,388.855,387.859,391.163z"/>
</g>
<g>
</g>
<g>
</g>
<g>
</g>
<g>
</g>
<g>
</g>
<g>
</g>
<g>
</g>
<g>
</g>
<g>
</g>
<g>
</g>
<g>
</g>
<g>
</g>
<g>
</g>
<g>
</g>
<g>
</g>
</svg>
